<mxfile host="app.diagrams.net" modified="2024-03-30T22:49:01.499Z" agent="Mozilla/5.0 (Windows NT 10.0; Win64; x64) AppleWebKit/537.36 (KHTML, like Gecko) Chrome/123.0.0.0 Safari/537.36" etag="IucsMsNQZE1q9U_7apYU" version="24.2.1" type="device">
  <diagram name="Page-1" id="mtAr_mu7G6u2_z8CVEQU">
    <mxGraphModel dx="433" dy="734" grid="1" gridSize="10" guides="1" tooltips="1" connect="1" arrows="1" fold="1" page="1" pageScale="1" pageWidth="827" pageHeight="1169" math="0" shadow="0">
      <root>
        <mxCell id="0" />
        <mxCell id="1" parent="0" />
        <mxCell id="YjioajIO95Ryh4rcV-dH-1" value="" style="ellipse;whiteSpace=wrap;html=1;aspect=fixed;" parent="1" vertex="1">
          <mxGeometry x="280" y="80" width="20" height="20" as="geometry" />
        </mxCell>
        <mxCell id="YjioajIO95Ryh4rcV-dH-2" value="" style="ellipse;whiteSpace=wrap;html=1;aspect=fixed;labelBackgroundColor=#000000;fillColor=#000000;" parent="1" vertex="1">
          <mxGeometry x="285" y="85" width="10" height="10" as="geometry" />
        </mxCell>
        <mxCell id="YjioajIO95Ryh4rcV-dH-9" style="edgeStyle=orthogonalEdgeStyle;rounded=0;orthogonalLoop=1;jettySize=auto;html=1;exitX=0.898;exitY=-0.006;exitDx=0;exitDy=0;entryX=0.5;entryY=1;entryDx=0;entryDy=0;exitPerimeter=0;" parent="1" target="YjioajIO95Ryh4rcV-dH-1" edge="1">
          <mxGeometry relative="1" as="geometry">
            <mxPoint x="289.80000000000007" y="159.9999999999999" as="sourcePoint" />
          </mxGeometry>
        </mxCell>
        <mxCell id="YjioajIO95Ryh4rcV-dH-11" style="edgeStyle=orthogonalEdgeStyle;rounded=0;orthogonalLoop=1;jettySize=auto;html=1;entryX=0.5;entryY=0;entryDx=0;entryDy=0;exitX=1;exitY=0.5;exitDx=0;exitDy=0;" parent="1" source="YjioajIO95Ryh4rcV-dH-4" target="YjioajIO95Ryh4rcV-dH-15" edge="1">
          <mxGeometry relative="1" as="geometry">
            <mxPoint x="320" y="190" as="sourcePoint" />
            <mxPoint x="440" y="240.0000000000001" as="targetPoint" />
          </mxGeometry>
        </mxCell>
        <mxCell id="YjioajIO95Ryh4rcV-dH-4" value="Idling" style="rounded=1;whiteSpace=wrap;html=1;" parent="1" vertex="1">
          <mxGeometry x="210" y="160" width="100" height="40" as="geometry" />
        </mxCell>
        <mxCell id="YjioajIO95Ryh4rcV-dH-5" value="" style="html=1;verticalAlign=bottom;startArrow=oval;startFill=1;endArrow=classic;startSize=14;curved=0;rounded=0;endFill=1;" parent="1" edge="1">
          <mxGeometry width="60" relative="1" as="geometry">
            <mxPoint x="230" y="90" as="sourcePoint" />
            <mxPoint x="230" y="160.24" as="targetPoint" />
          </mxGeometry>
        </mxCell>
        <mxCell id="YjioajIO95Ryh4rcV-dH-8" value="[isActive = true]" style="text;align=center;verticalAlign=middle;resizable=0;points=[];autosize=1;strokeColor=none;fillColor=none;" parent="1" vertex="1">
          <mxGeometry x="130" y="110" width="110" height="30" as="geometry" />
        </mxCell>
        <mxCell id="YjioajIO95Ryh4rcV-dH-10" value="[isActive = false]" style="text;align=center;verticalAlign=middle;resizable=0;points=[];autosize=1;strokeColor=none;fillColor=none;" parent="1" vertex="1">
          <mxGeometry x="285" y="110" width="110" height="30" as="geometry" />
        </mxCell>
        <mxCell id="YjioajIO95Ryh4rcV-dH-18" style="edgeStyle=orthogonalEdgeStyle;rounded=0;orthogonalLoop=1;jettySize=auto;html=1;entryX=0.75;entryY=0;entryDx=0;entryDy=0;exitX=0.75;exitY=1;exitDx=0;exitDy=0;" parent="1" source="YjioajIO95Ryh4rcV-dH-15" target="YjioajIO95Ryh4rcV-dH-17" edge="1">
          <mxGeometry relative="1" as="geometry" />
        </mxCell>
        <mxCell id="YjioajIO95Ryh4rcV-dH-27" style="edgeStyle=orthogonalEdgeStyle;rounded=0;orthogonalLoop=1;jettySize=auto;html=1;entryX=1;entryY=0.5;entryDx=0;entryDy=0;" parent="1" source="YjioajIO95Ryh4rcV-dH-15" target="YjioajIO95Ryh4rcV-dH-26" edge="1">
          <mxGeometry relative="1" as="geometry" />
        </mxCell>
        <mxCell id="YjioajIO95Ryh4rcV-dH-15" value="Iterating alerts" style="rounded=1;whiteSpace=wrap;html=1;" parent="1" vertex="1">
          <mxGeometry x="390" y="240" width="100" height="40" as="geometry" />
        </mxCell>
        <mxCell id="YjioajIO95Ryh4rcV-dH-16" value="(DB trigger) Alert&#39;s table changed" style="text;align=left;verticalAlign=bottom;resizable=0;points=[];autosize=1;strokeColor=none;fillColor=none;" parent="1" vertex="1">
          <mxGeometry x="314" y="150" width="200" height="30" as="geometry" />
        </mxCell>
        <mxCell id="YjioajIO95Ryh4rcV-dH-20" style="edgeStyle=orthogonalEdgeStyle;rounded=0;orthogonalLoop=1;jettySize=auto;html=1;exitX=0.25;exitY=0;exitDx=0;exitDy=0;entryX=0.25;entryY=1;entryDx=0;entryDy=0;" parent="1" source="YjioajIO95Ryh4rcV-dH-17" target="YjioajIO95Ryh4rcV-dH-15" edge="1">
          <mxGeometry relative="1" as="geometry" />
        </mxCell>
        <mxCell id="YjioajIO95Ryh4rcV-dH-17" value="Populating unresolvedAlerts&lt;div&gt;JSON&lt;/div&gt;" style="rounded=1;whiteSpace=wrap;html=1;" parent="1" vertex="1">
          <mxGeometry x="390" y="360" width="100" height="50" as="geometry" />
        </mxCell>
        <mxCell id="YjioajIO95Ryh4rcV-dH-19" value="Unresolved&lt;div&gt;alert&lt;/div&gt;&lt;div&gt;found&lt;/div&gt;" style="text;html=1;align=left;verticalAlign=middle;resizable=0;points=[];autosize=1;strokeColor=none;fillColor=none;" parent="1" vertex="1">
          <mxGeometry x="470" y="290" width="80" height="60" as="geometry" />
        </mxCell>
        <mxCell id="YjioajIO95Ryh4rcV-dH-21" value="&lt;div&gt;Unresolved&lt;/div&gt;&lt;div&gt;alert&lt;/div&gt;&lt;div&gt;added&lt;/div&gt;" style="text;html=1;align=right;verticalAlign=middle;resizable=0;points=[];autosize=1;strokeColor=none;fillColor=none;" parent="1" vertex="1">
          <mxGeometry x="330" y="290" width="80" height="60" as="geometry" />
        </mxCell>
        <mxCell id="YjioajIO95Ryh4rcV-dH-38" style="edgeStyle=orthogonalEdgeStyle;rounded=0;orthogonalLoop=1;jettySize=auto;html=1;exitX=0.75;exitY=1;exitDx=0;exitDy=0;entryX=0.75;entryY=0;entryDx=0;entryDy=0;" parent="1" source="YjioajIO95Ryh4rcV-dH-26" target="YjioajIO95Ryh4rcV-dH-33" edge="1">
          <mxGeometry relative="1" as="geometry" />
        </mxCell>
        <mxCell id="YjioajIO95Ryh4rcV-dH-26" value="Iterating users" style="rounded=1;whiteSpace=wrap;html=1;" parent="1" vertex="1">
          <mxGeometry x="110" y="240" width="100" height="40" as="geometry" />
        </mxCell>
        <mxCell id="YjioajIO95Ryh4rcV-dH-29" value="Guards&lt;div&gt;notified&lt;/div&gt;" style="text;html=1;align=right;verticalAlign=bottom;resizable=0;points=[];autosize=1;strokeColor=none;fillColor=none;" parent="1" vertex="1">
          <mxGeometry x="100" y="190" width="60" height="40" as="geometry" />
        </mxCell>
        <mxCell id="YjioajIO95Ryh4rcV-dH-30" value="Unresolved&amp;nbsp;&lt;span style=&quot;background-color: initial;&quot;&gt;alerts collected&lt;/span&gt;" style="text;html=1;align=center;verticalAlign=bottom;resizable=0;points=[];autosize=1;strokeColor=none;fillColor=none;" parent="1" vertex="1">
          <mxGeometry x="220" y="230" width="170" height="30" as="geometry" />
        </mxCell>
        <mxCell id="YjioajIO95Ryh4rcV-dH-31" value="PSC&#39;s Alert Relay" style="text;html=1;align=center;verticalAlign=middle;resizable=0;points=[];autosize=1;strokeColor=none;fillColor=none;fontStyle=1;fontSize=16;" parent="1" vertex="1">
          <mxGeometry x="185" y="20" width="150" height="30" as="geometry" />
        </mxCell>
        <mxCell id="YjioajIO95Ryh4rcV-dH-39" style="edgeStyle=orthogonalEdgeStyle;rounded=0;orthogonalLoop=1;jettySize=auto;html=1;exitX=0.25;exitY=0;exitDx=0;exitDy=0;entryX=0.25;entryY=1;entryDx=0;entryDy=0;" parent="1" source="YjioajIO95Ryh4rcV-dH-33" target="YjioajIO95Ryh4rcV-dH-26" edge="1">
          <mxGeometry relative="1" as="geometry" />
        </mxCell>
        <mxCell id="YjioajIO95Ryh4rcV-dH-33" value="Notifying guard" style="rounded=1;whiteSpace=wrap;html=1;" parent="1" vertex="1">
          <mxGeometry x="110" y="360" width="100" height="50" as="geometry" />
        </mxCell>
        <mxCell id="YjioajIO95Ryh4rcV-dH-40" value="Guard&lt;div&gt;notified&lt;/div&gt;" style="text;html=1;align=right;verticalAlign=middle;resizable=0;points=[];autosize=1;strokeColor=none;fillColor=none;" parent="1" vertex="1">
          <mxGeometry x="70" y="300" width="60" height="40" as="geometry" />
        </mxCell>
        <mxCell id="YjioajIO95Ryh4rcV-dH-41" value="Guard&lt;div&gt;found&lt;/div&gt;" style="text;html=1;align=left;verticalAlign=middle;resizable=0;points=[];autosize=1;strokeColor=none;fillColor=none;" parent="1" vertex="1">
          <mxGeometry x="185" y="300" width="60" height="40" as="geometry" />
        </mxCell>
        <mxCell id="YjioajIO95Ryh4rcV-dH-43" value="" style="edgeStyle=orthogonalEdgeStyle;rounded=0;orthogonalLoop=1;jettySize=auto;html=1;entryX=0;entryY=0.5;entryDx=0;entryDy=0;" parent="1" source="YjioajIO95Ryh4rcV-dH-26" target="YjioajIO95Ryh4rcV-dH-4" edge="1">
          <mxGeometry relative="1" as="geometry">
            <mxPoint x="160" y="290" as="sourcePoint" />
            <mxPoint x="160" y="250" as="targetPoint" />
          </mxGeometry>
        </mxCell>
      </root>
    </mxGraphModel>
  </diagram>
</mxfile>
